<?xml version="1.0"?>
<svg xmlns="http://www.w3.org/2000/svg" viewBox="0 0 50 50" enable-background="new 0 0 50 50">
    <path style="text-indent:0;text-align:start;line-height:normal;text-transform:none;block-progression:tb;-inkscape-font-specification:Bitstream Vera Sans" d="M 28.5 1 C 25.474279 1 23 3.4742784 23 6.5 C 23 9.5257216 25.474279 12 28.5 12 C 31.525721 12 34 9.5257216 34 6.5 C 34 3.4742784 31.525721 1 28.5 1 z M 28.5 3 C 30.444841 3 32 4.5551588 32 6.5 C 32 8.4448412 30.444841 10 28.5 10 C 26.555159 10 25 8.4448412 25 6.5 C 25 4.5551588 26.555159 3 28.5 3 z M 25 13 C 22.2 13 20 15.2 20 18 L 22 32 L 24 32 L 23.5 28.5 C 23.650139 28.620252 23.803562 28.740507 23.96875 28.84375 A 1.0001 1.0001 0 0 0 24 28.875 L 29.53125 32.125 L 29.5625 32.125 C 29.57348 32.1322 29.58268 32.14922 29.59375 32.15625 C 30.00902 32.419869 30.501164 32.59375 31 32.59375 C 31.933333 32.59375 32.866823 32.106015 33.4375 31.25 A 1.0001 1.0001 0 0 0 33.46875 31.1875 C 34.048187 30.144515 33.886609 28.88046 33.15625 28 L 43 28 C 43.6 28 44 28.4 44 29 C 44 29.6 43.6 30 43 30 L 34.90625 30 C 34.90625 30.6 34.70625 31.09375 34.40625 31.59375 C 34.30625 31.69375 34.1875 31.8 34.1875 32 L 43 32 C 44.7 32 46 30.7 46 29 C 46 27.3 44.7 26 43 26 L 30.15625 26 L 27.125 24.21875 L 25.96875 20.21875 A 1.0087508 1.0087508 0 1 0 24.03125 20.78125 L 25.34375 25.1875 A 1.0001 1.0001 0 0 0 25.78125 25.75 L 31.40625 29.0625 C 31.834207 29.300254 31.945528 29.748984 31.71875 30.1875 C 31.501443 30.471823 31.245879 30.59375 31 30.59375 C 30.92222 30.59375 30.828242 30.58341 30.65625 30.46875 A 1.0001 1.0001 0 0 0 30.59375 30.4375 L 25.03125 27.15625 C 25.019181 27.148707 25.011969 27.132755 25 27.125 C 24.432804 26.757518 23.97498 26.143689 23.75 25.46875 L 22.375 20.15625 A 1.0001 1.0001 0 0 0 22.25 19.84375 L 22 18 C 22 16.3 23.3 15 25 15 L 32.09375 15 C 33.09375 15 33.99375 15.5125 34.59375 16.3125 L 40.59375 25 L 43 25 L 36.1875 15.1875 C 35.2875 13.7875 33.69375 13 32.09375 13 L 25 13 z M 34.125 18.96875 C 34.01875 18.967188 33.9125 18.975 33.8125 19 C 33.4125 19.1 33.09375 19.5 33.09375 20 L 33.09375 25 L 35 25 L 35 23.3125 L 36.09375 25 L 38.5 25 L 34.90625 19.40625 C 34.75625 19.10625 34.44375 18.973437 34.125 18.96875 z M 5.5 30 C 2.4742784 30 0 32.474279 0 35.5 C 0 38.525721 2.4742784 41 5.5 41 C 8.5257216 41 11 38.525721 11 35.5 C 11 32.474279 8.5257216 30 5.5 30 z M 26.5 31.59375 L 25.5 33 L 16 33 C 13.2 33 11 35.2 11 38 C 11 40.8 13.2 43 16 43 L 27 43 L 46.90625 43 C 48.60625 43 50 41.60625 50 39.90625 C 50 38.30625 48.69375 37.00625 47.09375 36.90625 L 32.40625 36 L 33.6875 32.59375 C 32.9875 33.19375 32.0875 33.59375 31.1875 33.59375 L 30.09375 36.59375 C 29.99375 36.89375 29.9875 37.2 30.1875 37.5 C 30.3875 37.8 30.7 37.9 31 38 L 47.09375 39 C 47.69375 39 48.09375 39.49375 48.09375 40.09375 C 48.09375 40.69375 47.6 41.1875 47 41.1875 L 29.75 41.1875 C 29.909721 40.822216 30 40.421269 30 40 C 30 38.354545 28.645455 37 27 37 L 17 37 L 17 39 L 27 39 C 27.554545 39 28 39.445455 28 40 C 28 40.554545 27.554545 41 27 41 L 27 41.1875 L 16 41.1875 C 14.3 41.1875 13 39.8875 13 38.1875 C 13 36.4875 14.3 35.1875 16 35.1875 L 26.09375 35.1875 C 26.49375 35.1875 26.8 34.9875 27 34.6875 L 28.1875 32.59375 L 26.5 31.59375 z M 5.5 32 C 7.4448412 32 9 33.555159 9 35.5 C 9 37.444841 7.4448412 39 5.5 39 C 3.5551588 39 2 37.444841 2 35.5 C 2 33.555159 3.5551588 32 5.5 32 z M 3 42 C 1.3545455 42 0 43.354545 0 45 L 0 49 L 2 49 L 2 45 C 2 44.445455 2.4454545 44 3 44 L 8 44 C 8.2666667 44 8.5953376 44.166047 8.8125 44.4375 L 8.84375 44.4375 L 9.84375 45.625 L 10.125 46 L 10.59375 46 L 48 46 L 48 49 L 50 49 L 50 46 C 50 45.477778 49.814531 44.939531 49.4375 44.5625 C 49.060469 44.185469 48.522222 44 48 44 L 11.0625 44 L 10.375 43.1875 C 10.3699 43.1811 10.3489 43.1938 10.34375 43.1875 C 9.7611395 42.470245 8.9251546 42 8 42 L 3 42 z" overflow="visible" enable-background="accumulate" font-family="Bitstream Vera Sans"/>
</svg>
