<svg class="svg-icon" style="width: 1em; height: 1em;vertical-align: middle;fill: currentColor;overflow: hidden;" viewBox="0 0 1024 1024" version="1.1" xmlns="http://www.w3.org/2000/svg"><path d="M421.093878 616.489796h-41.795919c-28.734694 0-52.244898-23.510204-52.244898-52.244898V496.326531c0-28.734694 23.510204-52.244898 52.244898-52.244898h41.795919c28.734694 0 52.244898 23.510204 52.244898 52.244898v67.918367c0 28.734694-23.510204 52.244898-52.244898 52.244898z m-41.795919-130.612245c-5.746939 0-10.44898 4.702041-10.448979 10.44898v67.918367c0 5.746939 4.702041 10.44898 10.448979 10.44898h41.795919c5.746939 0 10.44898-4.702041 10.448979-10.44898V496.326531c0-5.746939-4.702041-10.44898-10.448979-10.44898h-41.795919zM295.706122 240.326531c-40.228571 0-73.142857-32.914286-73.142857-73.142858s32.914286-73.142857 73.142857-73.142857 73.142857 32.914286 73.142858 73.142857-32.914286 73.142857-73.142858 73.142858z m0-104.489796c-17.240816 0-31.346939 14.106122-31.346938 31.346938s14.106122 31.346939 31.346938 31.346939 31.346939-14.106122 31.346939-31.346939-14.106122-31.346939-31.346939-31.346938zM769.044898 929.959184c-54.857143 0-99.265306-44.408163-99.265306-99.265306s44.408163-99.265306 99.265306-99.265307 99.265306 44.408163 99.265306 99.265307-44.930612 99.265306-99.265306 99.265306z m0-156.734694c-31.869388 0-57.469388 25.6-57.469388 57.469388s25.6 57.469388 57.469388 57.469387 57.469388-25.6 57.469388-57.469387-26.122449-57.469388-57.469388-57.469388z"  /><path d="M492.146939 929.959184c-62.171429 0-112.84898-50.677551-112.84898-112.84898V595.591837c0-11.493878 9.404082-20.897959 20.897959-20.897959s20.897959 9.404082 20.89796 20.897959v221.518367c0 39.183673 31.869388 71.053061 71.053061 71.053061s71.053061-31.869388 71.053061-71.053061c0-11.493878 9.404082-20.897959 20.897959-20.897959s20.897959 9.404082 20.897959 20.897959c0.522449 62.171429-50.155102 112.84898-112.848979 112.84898z"  /><path d="M584.620408 838.008163c-11.493878 0-20.897959-9.404082-20.897959-20.897959v-129.044898c0-62.171429 50.677551-112.84898 112.84898-112.848979 62.171429 0 112.84898 50.677551 112.848979 112.848979V752.326531c0 11.493878-9.404082 20.897959-20.897959 20.897959s-20.897959-9.404082-20.897959-20.897959v-64.783674c0-39.183673-31.869388-71.053061-71.053061-71.053061s-71.053061 31.869388-71.053062 71.053061v129.044898c0 12.016327-9.404082 21.420408-20.897959 21.420408zM338.546939 551.706122c-18.808163 0-55.379592-4.179592-82.02449-32.391836-33.436735-36.571429-100.832653-175.542857-100.832653-262.791837 0-97.17551 44.408163-110.236735 87.24898-110.236735 11.493878 0 20.897959 9.404082 20.897959 20.897959s-9.404082 20.897959-20.897959 20.89796c-25.6 0-45.453061 0-45.453062 68.440816C197.485714 334.367347 261.22449 462.889796 287.346939 490.579592c20.897959 22.987755 57.469388 18.808163 57.991837 18.808163 11.493878-1.567347 21.942857 6.791837 22.987755 18.285714 1.567347 11.493878-6.791837 21.942857-18.285715 23.510204 0 0-4.702041 0.522449-11.493877 0.522449zM504.685714 240.326531c-40.228571 0-73.142857-32.914286-73.142857-73.142858s32.914286-73.142857 73.142857-73.142857 73.142857 32.914286 73.142857 73.142857-32.914286 73.142857-73.142857 73.142858z m0-104.489796c-17.240816 0-31.346939 14.106122-31.346938 31.346938s14.106122 31.346939 31.346938 31.346939 31.346939-14.106122 31.346939-31.346939-14.106122-31.346939-31.346939-31.346938z"  /><path d="M461.322449 551.706122c-6.791837 0-10.971429-0.522449-12.016327-0.522449-11.493878-1.567347-19.330612-12.016327-18.285714-23.510204 1.567347-11.493878 12.016327-19.330612 23.510204-18.285714 0 0 36.571429 4.179592 57.469388-18.808163 26.122449-28.212245 89.861224-156.212245 89.861224-234.579592 0-68.440816-20.37551-68.440816-45.453061-68.440816-11.493878 0-20.897959-9.404082-20.897959-20.89796s9.404082-20.897959 20.897959-20.897959c43.363265 0 87.24898 13.061224 87.24898 110.236735 0 87.24898-67.395918 226.220408-100.832653 262.791837-25.6 28.734694-62.693878 32.914286-81.502041 32.914285z"  /></svg>