<?xml version="1.0" encoding="utf-8"?>

<!DOCTYPE svg PUBLIC "-//W3C//DTD SVG 1.1//EN" "http://www.w3.org/Graphics/SVG/1.1/DTD/svg11.dtd">
<!-- Uploaded to: SVG Repo, www.svgrepo.com, Generator: SVG Repo Mixer Tools -->
<svg height="800px" width="800px" version="1.1" id="_x32_" xmlns="http://www.w3.org/2000/svg" xmlns:xlink="http://www.w3.org/1999/xlink" 
	 viewBox="0 0 512 512"  xml:space="preserve">
<style type="text/css">
	.st0{fill:#000000;}
</style>
<g>
	<polygon class="st0" points="246.844,95.944 265.157,95.944 265.157,74.198 286.909,74.198 286.909,55.893 265.157,55.893 
		265.157,34.14 246.844,34.14 246.844,55.893 225.106,55.893 225.106,74.198 246.844,74.198 	"/>
	<path class="st0" d="M254.312,431.232c0,2.913,2.362,5.276,5.275,5.276s5.283-2.363,5.283-5.276c0-2.928-2.37-5.283-5.283-5.283
		S254.312,428.304,254.312,431.232z"/>
	<path class="st0" d="M440.404,435.043c-1.874-7.034-4.524-13.34-7.793-18.957c-5.732-9.83-13.34-17.499-21.706-23.573
		c-6.283-4.563-13.014-8.274-19.832-11.473c-6.941-3.246-13.983-5.98-20.808-8.521c-2.014-0.434-3.339-1.116-4.392-1.488
		c-21.791-7.972-33.295-14.99-40.717-22.474c-7.522-7.654-9.614-15.137-9.676-20.374c0.07-10.296,2.812-16.454,7.05-22.853
		c4.23-6.345,10.404-12.55,16.067-21.087c3.068-4.633,5.849-10.063,7.878-16.4c2.672-1.054,5.106-2.401,7.243-3.912
		c3.378-2.378,6.143-5.106,8.398-7.662c4.493-5.121,6.941-9.645,7.127-9.962l0.039-0.062l0.039-0.086
		c0.109-0.201,2.588-4.989,5.113-11.852c2.503-6.894,5.159-15.749,5.198-24.828c-0.008-4.857-0.782-9.931-3.385-14.664
		c-1.758-3.269-4.586-6.136-8.057-8.243c0.403-1.89,0.806-3.85,1.193-5.95c1.72-9.327,3.161-11.922,3.161-23.698
		c0-7.599-0.596-15.446-2.147-23.194c-1.161-5.818-2.858-11.574-5.252-17.105c-1.836-4.206-4.082-8.281-6.794-12.116l26.254-39.624
		c1.657-2.502,2.463-5.392,2.463-8.204c0-2.254-0.504-4.47-1.496-6.515c-0.774-1.58-1.851-3.052-3.176-4.308
		c-1.053-1.432-3.06-3.85-6.468-6.972c-4.95-4.485-12.844-10.412-25.092-16.95c-10.721-5.709-23.891-11.202-39.663-15.253
		C295.408,2.626,277.063,0,256.031,0c-22.637,0-42.166,3.037-58.713,7.638c-16.547,4.594-30.097,10.745-40.818,16.934
		c-10.636,6.136-17.392,11.403-21.606,15.346c-2.827,2.658-4.508,4.703-5.454,5.996c-1.286,1.255-2.331,2.719-3.074,4.284
		c-0.954,1.999-1.434,4.184-1.434,6.384c0,2.82,0.813,5.702,2.479,8.212l29.5,44.536c-3.842,6.724-7.15,14.215-9.544,22.52
		c-2.618,9.11-4.144,19.181-4.144,30.19c0,6.871,0.596,5.492,1.874,13.084l0.062,1.542c0.062,0.953,0.147,1.944,0.248,2.967
		c0.163,1.511,0.349,3.068,0.48,4.377c0.054,0.496,0.093,0.899,0.124,1.294c-4.625,2.107-8.374,5.5-10.536,9.513
		c-2.596,4.733-3.37,9.807-3.378,14.664c0.039,9.08,2.696,17.934,5.198,24.828c2.525,6.864,5.004,11.652,5.112,11.852l0.039,0.086
		l0.031,0.062c0.186,0.317,2.642,4.841,7.127,9.962c2.262,2.556,5.02,5.283,8.397,7.662c2.139,1.51,4.579,2.858,7.252,3.912
		c2.03,6.344,4.81,11.767,7.871,16.4c5.67,8.537,11.837,14.742,16.075,21.087c4.237,6.399,6.979,12.557,7.049,22.853
		c-0.062,5.236-1.797,12.286-9.32,19.94c-7.414,7.468-20.404,15.245-42.142,23.194c-0.581,0.372-1.983,0.697-3.098,1.224
		c-3.053,1.131-6.135,2.3-9.25,3.548c-7.731,3.091-15.579,6.593-23.039,11.001c-5.601,3.3-10.993,7.119-15.943,11.651
		c-7.437,6.802-13.828,15.269-18.267,25.766c-4.439,10.488-6.895,22.914-6.895,37.587c0,2.061,0.434,4.044,1.154,5.856
		c0.674,1.712,1.573,3.285,2.665,4.772c2.037,2.765,4.664,5.252,7.894,7.638c5.655,4.175,13.177,8.088,22.923,11.76
		c14.586,5.5,34.147,10.442,59.417,14.037c25.286,3.595,56.288,5.842,93.658,5.842c32.389,0,59.991-1.689,83.239-4.478
		c17.43-2.092,32.412-4.803,45.132-7.902c9.545-2.34,17.81-4.88,24.898-7.577c5.322-2.014,9.978-4.105,14.037-6.275
		c3.038-1.627,5.733-3.284,8.103-4.989c3.571-2.572,6.43-5.236,8.599-8.242c1.084-1.519,1.983-3.122,2.642-4.865
		c0.658-1.736,1.046-3.626,1.046-5.578C443.705,452.055,442.558,443.077,440.404,435.043z M326.945,371.094l-37.285,54.018
		l-23.589-43.258l45.442-23.876c1,1.287,2.068,2.526,3.207,3.688C318.315,365.361,322.483,368.421,326.945,371.094z
		 M282.696,435.214l-22.698,32.869l-25.573-32.692l24.17-44.35L282.696,435.214z M141.898,56.924l0.101-0.093l0.696-1.209
		c0.21-0.286,1.456-2.014,4.695-4.849c3.332-2.929,8.785-7.05,17.314-11.977c9.622-5.546,21.877-11.124,37.014-15.331
		c15.129-4.206,33.14-7.034,54.313-7.034c19.668,0,36.611,2.44,51.051,6.158c14.44,3.719,26.378,8.708,36.022,13.844
		c11.202,5.973,17.934,11.14,21.769,14.618c1.905,1.736,3.082,3.052,3.741,3.843l0.604,0.79l0.023,0.031l0.744,1.248l0.101,0.077
		l-36.836,55.607h-77.219h-77.22L141.898,56.924z M191.307,282.238c-5.283-6.678-9.606-13.084-11.938-22.566l-1.193-4.912
		l-4.958-0.992c-1.944-0.379-4.028-1.348-6.066-2.796c-3.06-2.146-5.903-5.307-7.84-7.902c-0.977-1.302-1.736-2.448-2.232-3.238
		l-0.542-0.899l-0.086-0.14l-0.031-0.062c-0.418-0.821-2.618-5.283-4.648-11.031c-2.053-5.709-3.843-12.798-3.812-18.22
		c-0.008-3.106,0.566-5.516,1.395-6.98c0.798-1.309,1.619-2.169,3.594-2.982l7.367,5.779c3.579,5.43,6.554,9.738,7.63,10.822
		c3.526,3.517,4.029-4.772,2.356-14.084c-2.673-14.85,3.238-4.601,18.608-28.329c20.87,0.379,88.267-0.837,128.077-29.818
		c2.216,6.205,5.586,13.239,10.699,20.048c13.348,17.802,20.955,51.005,20.955,51.005s1.82-3.456,4.524-8.072
		c0.96,1.123,5.818-1.426,9.226-4.276c0.813,1.472,1.379,3.834,1.371,6.886c0.031,5.423-1.759,12.511-3.819,18.22
		c-2.022,5.748-4.222,10.21-4.648,11.031l-0.031,0.062l-0.077,0.14l-0.543,0.899c-0.496,0.79-1.255,1.936-2.231,3.238
		c-1.936,2.595-4.78,5.756-7.839,7.902c-2.045,1.448-4.122,2.417-6.066,2.796l-4.958,0.992l-1.193,4.912
		c-2.331,9.482-6.654,15.888-11.938,22.566c-5.213,6.647-11.573,13.364-16.012,22.977c-2.944,6.391-4.818,13.983-4.795,22.969
		c-0.047,6.468,1.89,13.502,6.166,20.436l-15.432,8.103l-31.901,16.764l-36.13-16.764l-16.532-7.662
		c0.054-0.124,0.085-0.271,0.132-0.403c4.3-6.941,6.244-13.998,6.197-20.474c0.024-8.986-1.852-16.578-4.796-22.969
		C202.873,295.602,196.52,288.885,191.307,282.238z M192.593,365.911c2.742-2.192,5.267-4.663,7.499-7.421l50.904,23.628
		l-23.922,43.878l-42.662-54.53C187.279,369.792,190.028,367.956,192.593,365.911z M427.165,463.226
		c-1.061,1.487-2.711,3.021-5.02,4.679c-1.774,1.286-3.889,2.587-6.299,3.866c-3.54,1.89-7.63,3.718-12.193,5.446
		c-6.678,2.541-14.44,4.88-23.031,6.988c-12.689,3.098-27.252,5.639-43.266,7.56c-24.123,2.897-51.493,4.37-81.349,4.37
		c-34.148,0-64.91-1.906-91.428-5.686c-22.504-3.192-41.359-7.623-56.048-13.17c-8.134-3.067-14.549-6.321-19.088-9.667
		c-2.061-1.534-3.548-2.929-4.54-4.262l-0.744-1.255c0-11.992,1.898-22.55,5.64-31.421c3.238-7.669,8.072-14.471,14.37-20.227
		c3.827-3.502,8.181-6.67,13.302-9.699c5.686-3.354,12.317-6.514,20.87-9.923c2.99-1.209,5.972-2.324,8.909-3.424l4.578-1.712
		l22.442-7.77l85.726,109.198l77.452-109.663l22.675,8.227l4.594,1.705c6.298,2.34,13.03,4.934,19.615,8.01
		c6.754,3.184,12.403,6.438,17.252,9.963c7.476,5.423,13.138,11.543,17.314,18.716c2.649,4.555,4.725,9.622,6.182,15.06
		c1.829,6.848,2.758,14.571,2.72,22.993L427.165,463.226z"/>
</g>
</svg>