<svg xmlns="http://www.w3.org/2000/svg" width="41.825" height="41.934" viewBox="0 0 41.825 41.934">
  <path id="Syringe-Icon-SVG-03cx" d="M119.527,10.312a2.558,2.558,0,0,0,3.593.026l1.963,1.963-.857.857a2.563,2.563,0,0,0,1.812,4.376,2.539,2.539,0,0,0,1.614-.587l15.833,15.833a3.71,3.71,0,0,0,4.883.306l1.964,1.964a2.394,2.394,0,0,0,2.606.517l6.1,6.1a.914.914,0,0,0,1.292-1.292l-6.1-6.1a2.392,2.392,0,0,0-.519-2.608l-1.951-1.953a3.708,3.708,0,0,0-.207-5L135.722,8.877a2.557,2.557,0,0,0-3.788-3.427l-.858.858-1.963-1.964A2.561,2.561,0,0,0,125.462.75l-5.936,5.937a2.561,2.561,0,0,0,0,3.625m33.06,23.046a.555.555,0,0,1-.166.4h0a.567.567,0,0,1-.8,0l-1.792-1.792.8-.8,1.792,1.792a.559.559,0,0,1,.166.4m-2.325-4.682-2.812,2.812a1.891,1.891,0,0,1-2.673,0L129.011,15.72l5.485-5.485,1.567,1.566-1.84,1.84a.914.914,0,0,0,1.292,1.292l1.84-1.839,2.626,2.624-1.84,1.84a.914.914,0,0,0,1.292,1.292l1.84-1.839,2.626,2.626-1.84,1.839a.914.914,0,0,0,1.294,1.292l1.839-1.839,2.626,2.626-1.84,1.839a.915.915,0,0,0,1.294,1.293l1.839-1.84L150.262,26a1.891,1.891,0,0,1,0,2.673m-16-21.932a.733.733,0,0,1,0,1.039l-7.707,7.709a.735.735,0,1,1-1.04-1.04l7.707-7.707a.735.735,0,0,1,1.04,0m-7.994,4.16-1.813-1.813,3.409-3.409L129.68,7.5Zm-5.452-2.924,5.936-5.937a.754.754,0,0,1,1.04,0,.736.736,0,0,1,0,1.04L121.859,9.02a.735.735,0,1,1-1.04-1.04" transform="translate(-118.775)"/>
</svg>
